<svg width="100" height="100" viewBox="0 0 100 100" fill="none" xmlns="http://www.w3.org/2000/svg">
<g clip-path="url(#clip0_2_1188)">
<circle cx="49.5845" cy="49.5757" r="49.5845" fill="#F03131"/>
<path d="M59.2534 19.5518H24.041V78.6524H76.1298V36.466L59.2534 19.5518ZM72.1985 74.7124H27.9722V23.4918H57.6251L72.1985 38.0979V74.7124Z" fill="white"/>
<path d="M47.8625 37.582C46.1744 37.5811 44.5095 37.9855 43.0017 38.7628C41.494 39.5401 40.1853 40.6686 39.1809 42.0577C38.1765 43.4467 37.5043 45.0576 37.2184 46.7609C36.9325 48.4642 37.0409 50.2124 37.5347 51.8651C38.0286 53.5177 38.8942 55.0287 40.062 56.2767C41.2298 57.5247 42.6673 58.4749 44.259 59.0509C45.8506 59.6269 47.552 59.8127 49.2265 59.5933C50.901 59.3739 52.5019 58.7556 53.9006 57.7878L61.5608 65.6298L64.1086 63.0216L56.5081 55.2406C57.7071 53.5986 58.4361 51.6473 58.6135 49.6052C58.7908 47.5631 58.4094 45.5108 57.5121 43.678C56.6148 41.8452 55.2369 40.3042 53.5326 39.2276C51.8284 38.151 49.8651 37.5812 47.8625 37.582ZM40.6718 48.6324C40.6717 47.1764 41.0935 45.753 41.8836 44.5424C42.6737 43.3318 43.7968 42.3882 45.1108 41.831C46.4247 41.2738 47.8706 41.128 49.2655 41.412C50.6604 41.6961 51.9417 42.3972 52.9473 43.4268C53.953 44.4563 54.6379 45.7681 54.9153 47.1961C55.1928 48.6241 55.0504 50.1043 54.5061 51.4495C53.9618 52.7947 53.0401 53.9444 51.8576 54.7533C50.675 55.5622 49.2848 55.9939 47.8625 55.9939C45.9561 55.9917 44.1283 55.2154 42.7803 53.8353C41.4322 52.4552 40.6739 50.5841 40.6718 48.6324Z" fill="white"/>
</g>
<defs>
<clipPath id="clip0_2_1188">
<rect width="100" height="100" fill="white" transform="translate(0 -0.00878906)"/>
</clipPath>
</defs>
</svg>
