<svg width="100" height="100" viewBox="0 0 100 100" fill="none" xmlns="http://www.w3.org/2000/svg">
<g clip-path="url(#clip0_2_1206)">
<circle cx="49.5845" cy="49.5757" r="49.5845" fill="#F03131"/>
<path d="M32.1307 33.8865C31.625 34.0049 31.9478 33.9833 31.5281 34.0371C29.7311 34.4245 31.0654 34.7688 32.1307 33.8865ZM63.7344 34.6074C63.8635 34.5214 64.3154 34.0802 62.9058 33.6498C62.9919 34.0909 62.6153 34.0479 62.6153 34.2954C63.659 35.2423 64.0895 36.8887 65.4238 37.233C65.682 36.0494 64.2401 35.4683 63.7344 34.6074ZM31.173 33.5421C31.3344 34.4998 32.0554 32.5307 32.0662 31.8312C31.7864 31.9926 31.5066 32.154 31.2161 32.2832C31.894 32.6275 31.3022 32.9934 30.5704 33.5421C29.0855 35.393 31.9586 32.1002 31.173 33.5421ZM49.5843 21.5549C34.3689 21.5549 22.0374 33.8865 22.0374 49.1019C22.0374 64.3065 34.3689 76.6488 49.5843 76.6488C64.7997 76.6488 77.1312 64.3065 77.1312 49.1019C77.1312 33.8865 64.7997 21.5549 49.5843 21.5549ZM50.316 30.7875L50.4451 30.8305C49.9286 31.4977 53.1353 33.4453 50.8325 33.6067C48.6804 34.2201 51.7364 33.0472 50.0685 33.2516C50.9509 32.0249 49.3691 32.0034 50.316 30.7875ZM37.2527 32.5522C36.478 31.9066 34.0461 33.4345 34.8962 33.0687C37.0052 32.2401 35.0361 33.1548 35.531 34.1447C35.0791 35.0809 35.3804 33.2193 34.2613 34.3277C33.4543 34.5106 31.4743 36.3399 31.7218 35.7803C31.6573 36.6519 29.3653 37.6849 29.0532 39.1376C28.3 41.1498 28.8703 39.0623 28.7304 38.2768C27.6543 36.9102 25.6959 40.5903 26.277 42.043C27.2562 40.3213 27.1809 41.86 26.4707 42.624C27.1916 43.9476 25.8143 45.6693 27.1809 46.6485C27.7835 46.7883 28.9886 44.6255 28.4614 46.8744C28.8272 44.9268 29.4729 47.3371 30.5166 46.7991C30.5812 47.8214 31.2161 47.3479 31.356 48.5854C33.0992 48.4562 34.6917 51.4046 32.6149 51.9642C32.927 51.8781 33.5403 52.4269 34.2505 52.0072C35.4557 52.9649 38.6301 53.0833 38.7162 55.4506C36.5318 56.4943 38.1781 59.3566 36.2843 60.3789C34.1107 60.0561 35.5418 63.0583 34.6272 62.7139C34.993 64.8768 32.432 62.4341 33.422 63.6286C35.2405 64.7477 32.6257 64.5217 33.4435 65.3395C32.5289 65.1458 34.0138 67.0396 34.2613 67.7391C35.5741 69.8697 33.1314 67.2656 32.4105 66.5554C31.7218 65.1781 30.097 62.5417 29.645 60.3789C29.3868 57.2368 26.9549 55.1278 26.3954 52.061C25.8358 50.3501 27.9341 47.6061 26.8043 46.6485C25.8251 45.8845 26.2232 43.2697 25.6421 41.8923C27.0948 35.5974 31.7111 30.2925 37.2527 27.1504C36.6824 27.5701 40.5132 26.0636 40.072 26.4294C39.9536 26.6985 42.3102 25.4072 43.7306 25.2135C43.5799 25.235 40.0397 26.5048 41.0189 26.3326C39.5017 27.0751 40.8683 26.6554 41.6215 26.2788C40.115 27.3871 38.9529 27.0751 37.242 28.0543C35.5203 28.5062 35.8754 30.2925 34.6487 31.1856C35.3696 31.3147 37.1774 29.324 38.2319 28.6246C40.6531 27.4517 37.0052 30.7552 39.308 29.3348C38.5332 30.0557 38.6946 31.2071 38.2212 31.5299C37.9844 31.4654 39.1573 32.0895 37.2527 32.5522ZM41.0189 27.6023C40.7714 27.9359 40.4271 28.6569 40.2226 28.2157C39.9429 28.3556 39.8353 28.9582 39.308 28.4739C39.62 28.248 39.9429 27.7099 39.3295 28.0435C39.6093 27.7422 42.1057 26.8921 41.9658 26.5693C42.407 26.2896 42.364 26.1497 41.8582 26.3218C41.6 26.2358 42.4716 25.504 43.6337 25.4072C43.7951 25.4072 43.8597 25.5148 43.5692 25.4825C41.8152 26.0205 42.5684 25.8699 43.7521 25.4825C43.3001 25.7408 42.9881 25.8161 42.9128 25.9345C44.0964 25.504 42.8482 26.2465 43.1172 26.1927C42.7836 26.3649 43.171 26.4187 42.5254 26.6662C42.6437 26.5693 41.4709 27.3656 42.1703 27.1289C41.4924 27.7745 41.1911 27.7853 41.0189 27.6023ZM42.0519 29.1411C42.0734 28.1081 43.5584 27.4517 43.3755 27.3979C45.2048 26.5371 42.7406 27.4302 44.1825 26.6554C44.7205 26.6016 45.8611 24.8799 47.4429 24.7723C49.1861 24.2451 48.3791 24.8046 49.6704 24.3096L49.4121 24.5248C49.1861 24.5571 49.4659 24.9553 48.6481 25.5578C48.562 26.494 47.0878 26.0636 47.8196 27.0643C47.3461 26.3864 46.6359 27.0428 47.529 27.1074C46.5713 27.8391 44.3439 27.9682 43.2786 29.1841C42.5899 30.1741 41.9551 29.8621 42.0519 29.1411ZM49.7026 32.5845C48.9709 34.3492 48.2607 32.3262 49.552 32.0034C49.8748 32.1756 50.0039 32.2294 49.7026 32.5845ZM46.948 29.055C46.7327 28.2587 46.9049 28.6784 48.1854 28.3018C49.0678 28.9366 47.3999 29.3563 46.948 29.055ZM66.984 60.6371C65.9726 58.8939 68.2107 57.2799 68.964 55.8164C68.8671 57.5273 68.6519 59.2167 66.984 60.6371ZM70.7933 40.7194C69.6957 40.8055 68.7057 41.0638 67.7158 40.4396C65.4345 37.9432 68.1354 43.2589 68.8887 41.0853C71.6003 42.1183 68.8456 46.5731 67.1347 46.1104C66.177 44.0444 64.9933 41.7739 62.9058 40.7625C64.5091 42.5379 65.3054 44.7223 67.0271 46.3256C67.1455 48.5638 69.4159 45.5078 69.276 47.2403C69.4912 50.221 65.908 52.0072 66.5321 54.9986C67.8664 57.721 63.9603 58.216 64.4015 60.6587C62.8305 62.4126 61.1518 64.7799 58.3326 64.4033C58.3326 62.9184 57.5793 61.6594 57.4072 60.1314C55.8792 58.1945 59.0213 56.1177 57.0736 54.0947C54.8247 53.589 57.5363 50.49 55.2228 50.7805C53.8347 49.3924 51.8009 50.7375 49.8103 50.7482C47.3138 50.9849 44.742 47.6815 45.8504 45.3464C44.968 42.9146 48.6481 42.2044 48.745 40.063C50.5097 38.5888 53.0169 38.7718 55.4057 38.4274C55.2336 40.1383 57.0413 40.1491 58.4079 40.7194C59.1719 38.8686 61.55 41.0207 63.1748 39.8478C63.7344 37.1146 61.593 38.761 60.3663 37.8894C58.8814 35.7158 63.5407 36.7703 63.0565 35.6297C61.2487 35.6189 62.2709 33.4023 60.9904 34.6397C62.1418 34.8442 60.786 35.7481 60.8183 34.715C59.0751 34.2093 60.7537 36.695 59.8713 36.9317C58.5263 36.3722 59.1611 37.5666 59.301 37.7495C58.72 39.0085 58.0098 35.8987 56.3634 35.9848C54.7278 34.4891 55.7178 36.6627 57.1382 37.0178C56.8369 37.1039 57.3103 38.3413 56.9337 37.8141C55.7608 36.2 53.5334 35.1239 52.2098 37.1039C52.07 38.9547 48.3038 39.482 48.9064 37.3191C48.024 35.0809 51.6395 37.2545 51.306 35.4683C48.9817 33.9295 51.9408 34.4245 52.7264 32.9826C54.5126 33.0364 52.8017 31.5192 53.641 31.078C53.5549 32.7243 55.0076 32.4123 56.159 32.1002C55.8792 31.1533 56.8476 31.1856 56.2558 30.4001C58.9244 29.3348 54.2221 30.8951 55.169 28.56C54.0176 27.7638 54.6848 30.314 55.169 30.583C55.2013 31.3685 54.5341 32.337 53.6195 30.6906C52.2852 31.5622 52.4251 29.8082 52.339 29.9912C52.1883 29.3133 53.3505 29.281 53.3612 28.0973C53.2644 27.3441 53.2859 26.946 53.8239 26.9029C53.867 27.0105 56.0298 27.0428 56.7938 27.9359C54.7063 27.5163 56.4818 28.2803 57.4179 28.7107C56.4172 27.9252 57.8161 28.7107 56.9983 27.8176C57.3211 27.8821 56.1052 26.5909 57.3534 27.7207C56.6755 26.9137 58.6769 27.1504 57.4933 26.5478C59.2257 27.032 58.2035 26.5909 57.1812 26.1497C54.362 24.471 62.1633 28.4201 58.9782 26.6662C61.012 27.1074 54.631 25.0951 57.5363 25.9775C56.428 25.4933 57.504 25.7623 58.5048 26.0743C56.7077 25.5148 54.0176 24.471 54.1252 24.428C54.7493 24.471 55.3627 24.6109 55.9545 24.7831C57.7946 25.3319 55.4272 24.654 55.933 24.6647C62.2602 26.2896 67.8018 30.5292 71.1699 36.0709C71.9554 36.8994 74.0967 42.3765 72.9776 39.9447C73.4834 41.8816 73.5587 43.9691 73.8277 45.949C73.2682 45.3249 72.6441 43.0222 72.106 41.7417C71.8801 42.2367 71.6218 41.0422 70.7933 40.7194Z" fill="white"/>
</g>
<defs>
<clipPath id="clip0_2_1206">
<rect width="100" height="100" fill="white" transform="translate(0 -0.00878906)"/>
</clipPath>
</defs>
</svg>
