<svg width="100" height="100" viewBox="0 0 100 100" fill="none" xmlns="http://www.w3.org/2000/svg">
<g clip-path="url(#clip0_2_1214)">
<circle cx="49.5806" cy="49.5757" r="49.5845" fill="#F03131"/>
<path d="M76.8141 46.5417L52.5203 21.2837L50.892 19.5898C50.5209 19.2064 50.0192 18.9912 49.4962 18.9912C48.9732 18.9912 48.4715 19.2064 48.1005 19.5898L22.1783 46.5417C21.7982 46.9356 21.4977 47.4048 21.2947 47.9215C21.0917 48.4382 20.9902 48.992 20.9964 49.5501C21.0215 51.8522 22.8637 53.69 25.0767 53.69H27.7488V74.9912H71.2436V53.69H73.9723C75.0474 53.69 76.0596 53.2518 76.8204 52.4605C77.1949 52.0721 77.4917 51.6102 77.6936 51.1017C77.8954 50.5931 77.9982 50.048 77.9961 49.4978C77.9961 48.386 77.5748 47.333 76.8141 46.5417ZM53.017 70.2823H45.9754V56.9405H53.017V70.2823ZM66.7168 48.9811V70.2823H57.0408V55.3708C57.0408 53.9255 55.9154 52.7548 54.526 52.7548H44.4665C43.077 52.7548 41.9516 53.9255 41.9516 55.3708V70.2823H32.2756V48.9811H26.2399L49.5025 24.8023L50.9548 26.313L72.7588 48.9811H66.7168Z" fill="white"/>
</g>
<defs>
<clipPath id="clip0_2_1214">
<rect width="100" height="100" fill="white" transform="translate(-0.00390625 -0.00878906)"/>
</clipPath>
</defs>
</svg>
